<?xml version="1.0" encoding="utf-8"?>
<!-- Generator: Adobe Illustrator 23.0.3, SVG Export Plug-In . SVG Version: 6.00 Build 0)  -->
<svg version="1.1" id="Layer_1" xmlns="http://www.w3.org/2000/svg" xmlns:xlink="http://www.w3.org/1999/xlink" x="0px" y="0px"
	 viewBox="0 0 919.3 654.43" style="enable-background:new 0 0 919.3 654.43;" xml:space="preserve">
<style type="text/css">
	.st0{opacity:0.3;fill:#FFFFFF;}
	.st1{fill:#FED600;}
	.st2{fill:#B41F24;}
	.st3{fill:#ED1C24;}
	.st4{opacity:0.8;fill:#FFFFFF;}
</style>
<g>
	<path class="st0" d="M680.93,269.91c0,144.46-97.18,261.56-217.06,261.56c-119.88,0-217.06-117.1-217.06-261.56
		S343.99,8.35,463.87,8.35C583.75,8.35,680.93,125.45,680.93,269.91z"/>
	<g>
		<g>
			<path d="M459.65,229.41C205.78,229.41,0,301.21,0,389.79c0,88.56,205.78,160.36,459.65,160.36s459.65-71.8,459.65-160.36
				C919.3,301.21,713.51,229.41,459.65,229.41z"/>
		</g>
	</g>
	<ellipse class="st1" cx="459.65" cy="374.96" rx="413.36" ry="115.31"/>
	<path class="st2" d="M142.99,374.15c0,19.6-17.06,35.48-38.11,35.48c-21.04,0-38.1-15.88-38.1-35.48s17.06-35.48,38.1-35.48
		C125.93,338.67,142.99,354.55,142.99,374.15z"/>
	<path class="st3" d="M237.45,401.49c0,19.6-17.06,35.49-38.1,35.49c-21.04,0-38.1-15.88-38.1-35.49c0-19.59,17.06-35.47,38.1-35.47
		C220.39,366.01,237.45,381.89,237.45,401.49z"/>
	<path d="M334.33,421.46c0,19.59-17.06,35.47-38.1,35.47c-21.04,0-38.1-15.88-38.1-35.47c0-19.6,17.06-35.49,38.1-35.49
		C317.27,385.97,334.33,401.86,334.33,421.46z"/>
	<path d="M438.14,429.34c0,19.6-17.06,35.48-38.11,35.48c-21.04,0-38.1-15.88-38.1-35.48s17.06-35.48,38.1-35.48
		C421.08,393.86,438.14,409.74,438.14,429.34z"/>
	<path d="M541.95,429.34c0,19.6-17.06,35.48-38.1,35.48c-21.04,0-38.1-15.88-38.1-35.48s17.06-35.48,38.1-35.48
		C524.89,393.86,541.95,409.74,541.95,429.34z"/>
	<path d="M636.57,421.46c0,19.59-17.06,35.47-38.11,35.47c-21.04,0-38.1-15.88-38.1-35.47c0-19.6,17.06-35.49,38.1-35.49
		C619.51,385.97,636.57,401.86,636.57,421.46z"/>
	<path d="M735.11,404.38c0,19.6-17.06,35.48-38.1,35.48c-21.04,0-38.1-15.88-38.1-35.48c0-19.59,17.06-35.47,38.1-35.47
		C718.05,368.9,735.11,384.78,735.11,404.38z"/>
	<path d="M831.04,379.41c0,19.59-17.06,35.48-38.1,35.48c-21.05,0-38.11-15.89-38.11-35.48c0-19.6,17.06-35.48,38.11-35.48
		C813.98,343.93,831.04,359.81,831.04,379.41z"/>
	<g>
		<g>
			<path d="M466.5,0C343.14,0,243.14,119.19,243.14,266.21h17.35c4-132.01,94.8-237.65,206.55-237.65
				c111.75,0,202.56,105.64,206.55,237.65h16.28C689.87,119.19,589.87,0,466.5,0z"/>
		</g>
	</g>
	<path d="M470.6,151.85c0,30.54-26.47,55.28-59.13,55.28c-32.66,0-59.13-24.74-59.13-55.28c0-30.52,26.47-55.26,59.13-55.26
		C444.13,96.59,470.6,121.34,470.6,151.85z"/>
	<path class="st4" d="M514.3,55.46c0,0,131.11,48.84,131.11,159.38h-71.98C573.42,214.84,583.5,99.2,514.3,55.46z"/>
	<g>
		<g>
			<polygon points="262.37,502.76 234.09,654.43 267.51,654.43 331.77,510.47 			"/>
		</g>
	</g>
	<g>
		<g>
			<polygon points="653.11,502.76 583.7,510.47 647.97,654.43 681.38,654.43 			"/>
		</g>
	</g>
</g>
</svg>
